<?xml version="1.0"?>
<svg xmlns="http://www.w3.org/2000/svg" xmlns:xlink="http://www.w3.org/1999/xlink" viewBox="0 0 512 512" width="512" height="512"><linearGradient id="a" gradientUnits="userSpaceOnUse" x1="122.5" x2="122.5" y1="8" y2="489.578"><stop offset="0" stop-color="rgba(21,184,207,1.00)"/><stop offset="1" stop-color="#2D2D2D"/></linearGradient><linearGradient id="b" x1="210.5" x2="210.5" xlink:href="#a" y1="8" y2="489.578"/><linearGradient id="c" x1="255.912" x2="255.912" xlink:href="#a" y1="8" y2="489.578"/><linearGradient id="d" x1="393.644" x2="393.644" xlink:href="#a" y1="8" y2="489.578"/><path d="m148 156.948v-4.363a8 8 0 0 0 -16 0v4.363a9.363 9.363 0 0 1 -9.314 9.557 9.668 9.668 0 0 1 -9.686-9.557v-4.363a8 8 0 0 0 -16 0v4.363a25.569 25.569 0 0 0 7.67 18.071 25.045 25.045 0 0 0 17.923 7.486 25.458 25.458 0 0 0 25.407-25.557z" fill="url(#a)"/><path d="m210.576 182.505a25.473 25.473 0 0 0 25.424-25.557v-4.363a8 8 0 0 0 -16 0v4.363a9.5 9.5 0 1 1 -19 0v-4.363a8 8 0 0 0 -16 0v4.363a25.574 25.574 0 0 0 25.576 25.557z" fill="url(#b)"/><path d="m389.748 270.023a116.393 116.393 0 0 0 -93.379 46.289 77.844 77.844 0 0 0 -41.824-12.312h-42.545v-14.049a112.022 112.022 0 0 0 45.529-37.47 110.029 110.029 0 0 0 19.924-56.681 28.728 28.728 0 0 0 22.2-27.739 28.305 28.305 0 0 0 -8.441-20.276 28.686 28.686 0 0 0 -13.212-7.416v-46.369h16.384a8.037 8.037 0 0 0 8-8.044 78.063 78.063 0 0 0 -77.964-77.956h-72.043a42.592 42.592 0 0 0 -30.377 12.487 42.154 42.154 0 0 0 -5.843 7.264c-35.698 1.693-54.21 28.607-59.643 54.049-.015.071.009.132 0 .2a30.124 30.124 0 0 0 -.514 5.659v52.276a27.462 27.462 0 0 0 -15.212 7.889 28.55 28.55 0 0 0 15.406 48.411 110.817 110.817 0 0 0 69.806 95.456v12.309h-42.548c-43.161 0-78.452 35.574-78.452 78.736v97.857a8.508 8.508 0 0 0 8.176 8.407h314.243a8.152 8.152 0 0 0 2.988-.786 116.188 116.188 0 0 0 59.341 16.063c64.556 0 117.076-52.572 117.076-117.128s-52.524-117.126-117.076-117.126zm-333.748-90.423c-5-1.934-7.62-6.373-7.62-11.532a12.523 12.523 0 0 1 3.7-8.886 9.785 9.785 0 0 1 3.92-2.66zm224.043-20.339a12.455 12.455 0 0 1 3.843 8.807c0 4.392-2.886 8.259-5.886 10.507v-21.041c0 .493 1.366 1.066 2.043 1.722zm-151.954-120.119c.01-.019.02-.048.029-.067a26.19 26.19 0 0 1 5.193-7.269 26.7 26.7 0 0 1 19.066-7.806h72.043a61.588 61.588 0 0 1 61.449 54h-133.492a5.187 5.187 0 0 1 -.813-.142c-.259-.04-.52-.133-.782-.147a26.886 26.886 0 0 1 -25.361-26.9 26.4 26.4 0 0 1 2.668-11.669zm-56.089 48.517a14.171 14.171 0 0 1 .225-2.647c.933-4.326 3.838-15.129 11.2-24.547a42.188 42.188 0 0 1 26.475-15.99 42.813 42.813 0 0 0 26.11 46c-24.35 26.025-52.01 29.276-64.01 29.225zm27.773 168.095a94.456 94.456 0 0 1 -27.773-67.121v-52.633h.048c16.759 0 52.661-5 82.22-42h107.732v94.633a95.432 95.432 0 0 1 -61.753 88.867 95.177 95.177 0 0 1 -63.432 1.134 95.034 95.034 0 0 1 -37.042-22.88zm59.227 217.246h-138v-90.264a62.409 62.409 0 0 1 59-62.162v21.5a36.583 36.583 0 0 0 -19.494 10.675 38.973 38.973 0 0 0 -11.506 27.961v44.1c0 4.418 3.18 8.191 7.6 8.191h12.62a8 8 0 1 0 0-16h-4.22v-36.291a23.228 23.228 0 0 1 6.7-16.717 22.742 22.742 0 0 1 16.115-6.993h.311a24.009 24.009 0 0 1 23.874 23.71v36.29h-8.135a8 8 0 0 0 0 16h15.79a8.466 8.466 0 0 0 8.345-8.191v-44.1a39.859 39.859 0 0 0 -32-38.771v-21.938h34.452l28.548 30.766zm-17-163.733v-12.6a109.651 109.651 0 0 0 24.948 2.858 113.956 113.956 0 0 0 29.052-3.851v13.373l-28.371 27.187zm33 163.733v-122.016l32.067-30.984h14.933v42.184a32.488 32.488 0 0 0 -24.5 31.3 32.219 32.219 0 1 0 55.163-22.85 34.576 34.576 0 0 0 -14.663-8.461v-42.173h16.545a61.983 61.983 0 0 1 33.064 9.7 117.907 117.907 0 0 0 22.162 143.3zm54.614-95.82a16.239 16.239 0 0 1 11.569 4.8 16.331 16.331 0 0 1 0 23.006 16.329 16.329 0 0 1 -23.106.033 16.314 16.314 0 0 1 11.536-27.843zm160.134 111a101.03 101.03 0 0 1 -84.671-156.218l.009-.015a101.063 101.063 0 1 1 84.662 156.233z" fill="url(#c)"/><path d="m421.023 322.711a102.8 102.8 0 0 0 -19.2 3.364 8 8 0 0 0 4.106 15.465 88.327 88.327 0 0 1 16.263-2.871 23.937 23.937 0 0 1 25.62 26.428c-2.02 18.63-8.587 47.474-28.128 81.293l-16.292-29.99a11.926 11.926 0 0 0 -10.71-6.382 12.128 12.128 0 0 0 -10.767 6.7l-14.579 29.2c-19.337-33.633-25.85-62.269-27.861-80.779a24.02 24.02 0 0 1 24.555-26.539 64.92 64.92 0 0 1 4.282 5.329c7.5 9.963 21.467 28.5 48.4 25.134a8 8 0 1 0 -1.987-15.877c-17.742 2.226-26.551-9.48-33.633-18.883-4.5-5.969-8.378-11.123-14.613-11.591a40.02 40.02 0 0 0 -42.91 44.159c2.306 21.225 10.023 54.661 33.729 93.482a12.221 12.221 0 0 0 10.931 5.754 12.09 12.09 0 0 0 10.238-6.669l14.414-28.873 16 29.449a11.936 11.936 0 0 0 10.268 6.352q.177.006.354.006a12.2 12.2 0 0 0 10.365-5.81c23.8-38.864 31.543-72.43 33.852-93.733a39.937 39.937 0 0 0 -42.694-44.122z" fill="url(#d)"/></svg>
