<svg id="Capa_1" enable-background="new 0 0 512 512" height="512" viewBox="0 0 512 512" width="512" xmlns="http://www.w3.org/2000/svg" xmlns:xlink="http://www.w3.org/1999/xlink"><linearGradient id="SVGID_1_" gradientUnits="userSpaceOnUse" x1="256" x2="256" y1="512" y2="0"><stop offset="0" stop-color="rgba(21,184,207,1.00)"/><stop offset="1" stop-color="#2D2D2D"/></linearGradient><g><g><g><path d="m346 332h-60c-8.284 0-15 6.716-15 15s6.716 15 15 15h60c8.284 0 15-6.716 15-15s-6.716-15-15-15zm-60-60c-8.284 0-15 6.716-15 15s6.716 15 15 15h60c8.284 0 15-6.716 15-15s-6.716-15-15-15zm-120 90h60c8.284 0 15-6.716 15-15s-6.716-15-15-15h-60c-8.284 0-15 6.716-15 15s6.716 15 15 15zm331-180h-76v-167c0-8.284-6.716-15-15-15h-300c-8.284 0-15 6.716-15 15v167h-76c-8.284 0-15 6.716-15 15v300c0 8.284 6.716 15 15 15h482c8.284 0 15-6.716 15-15v-300c0-8.284-6.716-15-15-15zm-406 300h-61v-270h61zm210 0h-90v-60h90zm90 0h-60v-75c0-8.284-6.716-15-15-15h-120c-8.284 0-15 6.716-15 15v75h-60v-452h270zm91 0h-61v-270h61zm-251.276-240.774c6.121-2.031 10.258-7.757 10.276-14.206.05-18.356 5.918-45.02 15-45.02s14.95 26.664 15 45c0 6.457 4.131 12.188 10.257 14.23 6.098 2.033 12.852-.043 16.743-5.23 1.96-2.613 48-64.739 48-129 0-24.813-20.187-45-45-45-12.62 0-22.089 5.179-29.697 9.34-6.417 3.509-10.589 5.66-15.303 5.66s-8.886-2.151-15.302-5.66c-7.609-4.161-17.077-9.34-29.698-9.34-24.813 0-45 20.187-45 45 0 64.261 46.04 126.387 48 129 3.87 5.159 10.601 7.257 16.724 5.226zm-19.724-149.226c4.714 0 8.886 2.151 15.302 5.66 7.608 4.161 17.077 9.34 29.698 9.34s22.09-5.179 29.698-9.34c6.416-3.509 10.588-5.66 15.302-5.66 8.271 0 15 6.729 15 15 0 27.921-11.06 56.416-21.828 77.545-9.897-28.075-27.798-32.545-38.172-32.545s-28.275 4.47-38.171 32.544c-10.771-21.13-21.829-49.623-21.829-77.544 0-8.271 6.729-15 15-15zm-45 210h60c8.284 0 15-6.716 15-15s-6.716-15-15-15h-60c-8.284 0-15 6.716-15 15s6.716 15 15 15z" fill="url(#SVGID_1_)"/></g></g></g></svg>