<?xml version="1.0" encoding="UTF-8"?>
<svg xmlns="http://www.w3.org/2000/svg" xmlns:xlink="http://www.w3.org/1999/xlink" id="Gradient" viewBox="0 0 512 512" width="512" height="512"><defs><linearGradient id="linear-gradient" x1="256" y1="496" x2="256" y2="16" gradientUnits="userSpaceOnUse"><stop offset="0" stop-color="rgba(53,53,53,1)"/><stop offset="0.5" stop-color="rgba(21,184,207,1.00)"/><stop offset="1" stop-color="#fff"/></linearGradient></defs><path d="M16,360V488a8,8,0,0,0,8,8H488a8,8,0,0,0,8-8V360a24.028,24.028,0,0,0-24-24h-4.613c1.743-9.517,3.928-17.484,5.985-24.983C476.78,298.59,480,286.854,480,272c0-15.594-6.767-31.7-19.054-45.352C452.863,217.667,440.356,208,432,208c-7.932,0-22.833,8.624-32,14.454C390.833,216.624,375.932,208,368,208c-8.356,0-20.863,9.667-28.946,18.648a84.432,84.432,0,0,0-6.482,8.158A112.28,112.28,0,0,0,336,208a58.753,58.753,0,0,0-2.975-18.23c16.947-19.241,36.957-49.093,56.121-83.913,15.107-27.448,33.29-65.157,34.818-81.093A8,8,0,0,0,416,16H264a8,8,0,0,0-6.021,2.731c-33.246,38-44.873,91.613-48.675,131.311a83.883,83.883,0,0,0-14.25,12.606C182.767,176.3,176,192.406,176,208a112.28,112.28,0,0,0,3.428,26.806,84.432,84.432,0,0,0-6.482-8.158C164.863,217.667,152.356,208,144,208c-7.932,0-22.833,8.624-32,14.454C102.833,216.624,87.932,208,80,208c-8.356,0-20.863,9.667-28.946,18.648C38.767,240.3,32,256.406,32,272c0,14.854,3.22,26.59,6.628,39.017,2.057,7.5,4.242,15.466,5.985,24.983H40A24.028,24.028,0,0,0,16,360ZM368.187,224.029c3.762.566,16.324,7.264,27.376,14.628a8.007,8.007,0,0,0,8.874,0c11.107-7.4,23.737-14.128,27.354-14.634C437.589,225.541,464,245.146,464,272c0,12.7-2.808,22.934-6.058,34.784C453.513,322.933,448,343.031,448,376c0,44.3-10.466,56-16,56-.559,0-1.868,0-3.646-4.151C426.367,423.215,424,413.234,424,392c0-9.647-6.392-24-24-24s-24,14.353-24,24c0,21.234-2.367,31.215-4.354,35.849C369.868,432,368.559,432,368,432c-5.534,0-16-11.7-16-56,0-32.969-5.513-53.067-9.942-69.216C338.808,294.934,336,284.7,336,272,336,245.182,362.344,225.592,368.187,224.029Zm-41.559,86.988c2.057,7.5,4.242,15.466,5.985,24.983H318.822A225.072,225.072,0,0,0,320,312a239.374,239.374,0,0,1,1.186-24.491A201.921,201.921,0,0,0,326.628,311.017ZM314.343,186.343c-40.882,40.882-58.384,41.692-60.6,40.075-.142-2.059,8.363-13.244,8.566-13.507,36.841-47.365,59.163-106.789,69.942-141.11A48.084,48.084,0,0,0,375.321,32h30.652C395.637,64.7,349.728,150.959,314.343,186.343ZM328,56a32.057,32.057,0,0,1-30.987-24h61.974A32.057,32.057,0,0,1,328,56ZM315.9,70.452a532.425,532.425,0,0,1-29.779,73.7c-6.684.912-16.758,6.2-24.86,11.057,13.274-30.972,33.649-62.651,50.306-86.108Q313.686,69.876,315.9,70.452ZM267.7,32h12.983A48.013,48.013,0,0,0,297.61,61.124c-17.521,24.788-38.813,58.209-52.373,90.911-6.761-3.742-14-7.108-19.217-7.861C230.159,108.834,240.91,64.369,267.7,32ZM224.187,160.029c3.762.566,16.324,7.264,27.376,14.628a8.007,8.007,0,0,0,8.874,0c4.609-3.071,9.472-6.017,13.853-8.46a324.269,324.269,0,0,1-24.331,36.538,60.472,60.472,0,0,0-7.819,10.149c-8.017,13.361-3.314,21.256.2,24.773,2.717,2.716,6.951,5.147,13.413,5.146,12.057,0,31.866-8.477,63.979-39.343A40.345,40.345,0,0,1,320,208c0,12.7-2.808,22.934-6.058,34.784C309.513,258.933,304,279.031,304,312c0,44.3-10.466,56-16,56-.559,0-1.868,0-3.646-4.151C282.367,359.215,280,349.234,280,328c0-9.647-6.392-24-24-24s-24,14.353-24,24c0,21.234-2.367,31.215-4.354,35.849C225.868,368,224.559,368,224,368c-5.534,0-16-11.7-16-56,0-32.969-5.513-53.067-9.942-69.216C194.808,230.934,192,220.7,192,208,192,181.182,218.344,161.592,224.187,160.029ZM264.118,336H247.883c.075-2.528.116-5.154.116-7.9a12.052,12.052,0,0,1,1.313-4.815c.893-1.622,2.386-3.28,6.688-3.28s5.8,1.658,6.688,3.28A12.077,12.077,0,0,1,264,328C264,330.787,264.042,333.444,264.118,336Zm-73.3-48.491A239.374,239.374,0,0,1,192,312a225.072,225.072,0,0,0,1.178,24H179.387c1.743-9.517,3.928-17.484,5.985-24.983A201.921,201.921,0,0,0,190.814,287.509ZM80.187,224.029c3.762.566,16.324,7.264,27.376,14.628a8.007,8.007,0,0,0,8.874,0c11.107-7.4,23.737-14.128,27.354-14.634C149.589,225.541,176,245.146,176,272c0,12.7-2.808,22.934-6.058,34.784C165.513,322.933,160,343.031,160,376c0,44.3-10.466,56-16,56-.559,0-1.868,0-3.646-4.151C138.367,423.215,136,413.234,136,392c0-9.647-6.392-24-24-24s-24,14.353-24,24c0,21.234-2.367,31.215-4.354,35.849C81.868,432,80.559,432,80,432c-5.534,0-16-11.7-16-56,0-32.969-5.513-53.067-9.942-69.216C50.808,294.934,48,284.7,48,272,48,245.182,74.344,225.592,80.187,224.029ZM48,376c0,25.794,3.367,44.934,10.007,56.885C65.312,446.036,74.922,448,80,448c5.665,0,13.447-2.4,18.354-13.849C102.153,425.285,104,411.5,104,392.1a12.052,12.052,0,0,1,1.313-4.815c.893-1.622,2.386-3.28,6.688-3.28s5.8,1.658,6.688,3.28A12.077,12.077,0,0,1,120,392c0,19.5,1.847,33.285,5.646,42.151C130.553,445.6,138.335,448,144,448c5.078,0,14.687-1.964,21.993-15.115C172.633,420.934,176,401.794,176,376a240.238,240.238,0,0,1,1.136-24h18.689a66.424,66.424,0,0,0,6.182,16.885C209.312,382.036,218.922,384,224,384c5.665,0,13.447-2.4,18.354-13.849,1.995-4.655,3.446-10.682,4.379-18.151h18.535c.934,7.477,2.385,13.5,4.378,18.151C274.553,381.6,282.335,384,288,384c5.078,0,14.688-1.964,21.993-15.115A66.424,66.424,0,0,0,316.175,352h18.689A240.238,240.238,0,0,1,336,376c0,25.794,3.367,44.934,10.007,56.885C353.312,446.036,362.922,448,368,448c5.665,0,13.447-2.4,18.354-13.849C390.153,425.285,392,411.5,392,392.1a12.052,12.052,0,0,1,1.313-4.815c.893-1.622,2.386-3.28,6.688-3.28s5.8,1.658,6.688,3.28A12.077,12.077,0,0,1,408,392c0,19.5,1.847,33.285,5.646,42.151C418.553,445.6,426.335,448,432,448c5.078,0,14.688-1.964,21.993-15.115C460.633,420.934,464,401.794,464,376a240.238,240.238,0,0,1,1.136-24H472a8.009,8.009,0,0,1,8,8V480H32V360a8.009,8.009,0,0,1,8-8h6.864A240.238,240.238,0,0,1,48,376Z" style="fill:url(#linear-gradient)"/></svg>
