<svg height="512" viewBox="0 0 64 64" width="512" xmlns="http://www.w3.org/2000/svg" xmlns:xlink="http://www.w3.org/1999/xlink"><linearGradient id="New_Gradient_Swatch" gradientUnits="userSpaceOnUse" x1="32" x2="32" y1="63.683" y2="-.365"><stop offset="0" stop-color="#DB9A49"/><stop offset=".35" stop-color="#DB9A49"/><stop offset=".7" stop-color="#DB9A49"/><stop offset="1" stop-color="#DB9A49"/></linearGradient><linearGradient id="New_Gradient_Swatch-3" x1="15" x2="15" xlink:href="#New_Gradient_Swatch" y1="63.683" y2="-.365"/><linearGradient id="New_Gradient_Swatch-4" x1="50" x2="50" xlink:href="#New_Gradient_Swatch" y1="63.683" y2="-.365"/><linearGradient id="New_Gradient_Swatch-5" x1="10.354" x2="10.354" xlink:href="#New_Gradient_Swatch" y1="63.683" y2="-.365"/><linearGradient id="New_Gradient_Swatch-6" x1="19.646" x2="19.646" xlink:href="#New_Gradient_Swatch" y1="63.683" y2="-.365"/><linearGradient id="New_Gradient_Swatch-7" x1="46.646" x2="46.646" xlink:href="#New_Gradient_Swatch" y1="63.683" y2="-.365"/><linearGradient id="New_Gradient_Swatch-8" x1="54" x2="54" xlink:href="#New_Gradient_Swatch" y1="63.683" y2="-.365"/><linearGradient id="New_Gradient_Swatch-9" x1="52" x2="52" xlink:href="#New_Gradient_Swatch" y1="63.683" y2="-.365"/><linearGradient id="New_Gradient_Swatch-10" gradientTransform="matrix(.707 .707 -.707 .707 39.101 -24.397)" x1="49" x2="49" xlink:href="#New_Gradient_Swatch" y1="63.683" y2="-.365"/><linearGradient id="New_Gradient_Swatch-11" x1="12" x2="12" xlink:href="#New_Gradient_Swatch" y1="63.683" y2="-.365"/><linearGradient id="New_Gradient_Swatch-12" gradientTransform="matrix(.707 .707 -.707 .707 29.142 -.355)" x1="15" x2="15" xlink:href="#New_Gradient_Swatch" y1="63.683" y2="-.365"/><path d="m39.9 46.84-3.9-1.523v-1.581a6.991 6.991 0 0 0 3-5.736v-1a1 1 0 0 0 1-1v-3a8 8 0 0 0 -16 0v3a1 1 0 0 0 1 1v1a6.992 6.992 0 0 0 3 5.736v1.581l-3.9 1.523a7.031 7.031 0 0 0 -5.1 6.74v7.42a1 1 0 0 0 1 1h24a1 1 0 0 0 1-1v-7.42a7.031 7.031 0 0 0 -5.1-6.74zm-13.9-13.84a6 6 0 0 1 12 0v2h-1.586l-1.707-1.707a1 1 0 0 0 -1.262-.125l-2.745 1.832h-4.7zm1 5v-1h4a1.006 1.006 0 0 0 .555-.168l2.318-1.545 1.42 1.42a1 1 0 0 0 .707.293h1v1a5 5 0 0 1 -10 0zm5 7a6.956 6.956 0 0 0 2-.3v.881l-2 2-2-2v-.881a6.956 6.956 0 0 0 2 .3zm11 15h-3v-5h-2v5h-12v-5h-2v5h-3v-6.42a5.026 5.026 0 0 1 3.686-4.826.868.868 0 0 0 .1-.033l3.971-1.552 2.538 2.538a1 1 0 0 0 1.414 0l2.538-2.538 3.971 1.552a.868.868 0 0 0 .1.033 5.026 5.026 0 0 1 3.682 4.826z" fill="url(#New_Gradient_Swatch)"/><path d="m32 42a3 3 0 0 0 3-3h-2a1 1 0 0 1 -2 0h-2a3 3 0 0 0 3 3z" fill="url(#New_Gradient_Swatch)"/><path d="m18.293 25.707a1 1 0 0 0 1.707-.707v-3h6a2 2 0 0 0 2-2v-16a2 2 0 0 0 -2-2h-22a2 2 0 0 0 -2 2v16a2 2 0 0 0 2 2h10.586zm7.707-21.707v3h-22v-3zm-22 5h22v11h-7a1 1 0 0 0 -1 1v1.586l-2.293-2.293a1 1 0 0 0 -.707-.293h-11z" fill="url(#New_Gradient_Swatch-3)"/><path d="m60 5h-20a2 2 0 0 0 -2 2v16a2 2 0 0 0 2 2h5v3a1 1 0 0 0 1.707.707l3.707-3.707h9.586a2 2 0 0 0 2-2v-16a2 2 0 0 0 -2-2zm0 2v3h-20v-3zm-10 16a1 1 0 0 0 -.707.293l-2.293 2.293v-1.586a1 1 0 0 0 -1-1h-6v-11h20v11z" fill="url(#New_Gradient_Swatch-4)"/><path d="m11.293 10.293-3 3a1 1 0 0 0 0 1.414l3 3 1.414-1.414-2.293-2.293 2.293-2.293z" fill="url(#New_Gradient_Swatch-5)"/><path d="m18.707 17.707 3-3a1 1 0 0 0 0-1.414l-3-3-1.414 1.414 2.293 2.293-2.293 2.293z" fill="url(#New_Gradient_Swatch-6)"/><path d="m45.707 13.293-1.414 1.414 2.293 2.293-2.293 2.293 1.414 1.414 3-3a1 1 0 0 0 0-1.414z" fill="url(#New_Gradient_Swatch-7)"/><path d="m51 19h6v2h-6z" fill="url(#New_Gradient_Swatch-8)"/><path d="m48 43h8v2h-8z" fill="url(#New_Gradient_Swatch-9)"/><path d="m44.757 34h8.485v2h-8.485z" fill="url(#New_Gradient_Swatch-10)" transform="matrix(.707 -.707 .707 .707 -10.397 44.899)"/><path d="m8 43h8v2h-8z" fill="url(#New_Gradient_Swatch-11)"/><path d="m14 30.757h2v8.485h-2z" fill="url(#New_Gradient_Swatch-12)" transform="matrix(.707 -.707 .707 .707 -20.355 20.858)"/></svg>