<svg height="512pt" viewBox="0 0 512 512" width="512pt" xmlns="http://www.w3.org/2000/svg"><path d="m256 0c-141.484375 0-256 114.496094-256 256 0 41.703125 10.21875 82.898438 29.601562 119.5625l-9.828124 94.707031c-1.308594 12.621094 9.339843 23.269531 21.957031 21.957031l94.707031-9.828124c36.664062 19.382812 77.859375 29.601562 119.5625 29.601562 141.484375 0 256-114.496094 256-256 0-141.484375-114.496094-256-256-256zm0 472c-37.023438 0-73.554688-9.535156-105.652344-27.574219-3.5625-2-7.699218-2.886719-11.863281-2.457031l-76.382813 7.929688 7.929688-76.382813c.425781-4.117187-.433594-8.257813-2.460938-11.867187-18.035156-32.09375-27.570312-68.625-27.570312-105.648438 0-119.378906 96.605469-216 216-216 119.378906 0 216 96.605469 216 216 0 119.378906-96.605469 216-216 216zm59-216.332031c-34.96875 0-62.558594 30.273437-59.03125 65.316406-28.371094-13.5625-51.390625-36.582031-64.953125-64.953125 35.082031 3.527344 65.316406-24.101562 65.316406-59.03125 0-32.71875-26.617187-59.332031-59.332031-59.332031s-59.332031 26.613281-59.332031 59.332031c0 97.78125 79.550781 177.332031 177.332031 177.332031 32.71875 0 59.332031-26.617187 59.332031-59.332031s-26.613281-59.332031-59.332031-59.332031zm-118-78c10.660156 0 19.332031 8.671875 19.332031 19.332031s-8.671875 19.332031-19.332031 19.332031-19.332031-8.671875-19.332031-19.332031 8.671875-19.332031 19.332031-19.332031zm98.667969 137.332031c0-10.660156 8.671875-19.332031 19.332031-19.332031s19.332031 8.671875 19.332031 19.332031-8.671875 19.332031-19.332031 19.332031-19.332031-8.671875-19.332031-19.332031zm0 0" fill="#DB9A49"/></svg>